<svg xmlns="http://www.w3.org/2000/svg" viewBox="0 0 300 146" width="300" height="146" role="img" aria-label="A file dragged from the Mac desktop onto Darpan's window lands on the Linux desktop"><title>A file dragged from the Mac desktop onto Darpan's window lands on the Linux desktop</title><style>@keyframes ptr{0.00%{opacity:0;transform:translate(262.0px,60.0px)}5.00%{opacity:0;transform:translate(262.0px,60.0px)}6.67%{opacity:1;transform:translate(262.0px,60.0px)}11.67%{opacity:1;transform:translate(262.0px,60.0px)}26.67%{opacity:1;transform:translate(176.0px,64.0px)}35.00%{opacity:1;transform:translate(176.0px,64.0px)}36.67%{opacity:0;transform:translate(176.0px,64.0px)}100.00%{opacity:0;transform:translate(176.0px,64.0px)}}.ptr{animation:ptr 6s ease-in-out infinite;}@keyframes drag{0.00%{opacity:0;transform:translate(257.0px,58.0px)}11.67%{opacity:0;transform:translate(257.0px,58.0px)}13.33%{opacity:1;transform:translate(257.0px,58.0px)}26.67%{opacity:1;transform:translate(171.0px,62.0px)}30.83%{opacity:1;transform:translate(171.0px,62.0px)}32.50%{opacity:0;transform:translate(171.0px,62.0px)}100.00%{opacity:0;transform:translate(171.0px,62.0px)}}.drag{animation:drag 6s ease-in-out infinite;}@keyframes drop{0.00%{opacity:0}22.50%{opacity:0}24.17%{opacity:1}31.67%{opacity:1}33.33%{opacity:0}100.00%{opacity:0}}.drop{animation:drop 6s linear infinite;}@keyframes d1{0.00%{opacity:0;transform:translate(119.0px,70.0px)}31.67%{opacity:0;transform:translate(119.0px,70.0px)}33.33%{opacity:1;transform:translate(119.0px,70.0px)}43.33%{opacity:1;transform:translate(56.0px,70.0px)}45.00%{opacity:0;transform:translate(56.0px,70.0px)}100.00%{opacity:0;transform:translate(56.0px,70.0px)}}.d1{animation:d1 6s ease-in-out infinite;}@keyframes toast{0.00%{opacity:0}31.67%{opacity:0}33.33%{opacity:1}48.33%{opacity:1}50.00%{opacity:0}100.00%{opacity:0}}.toast{animation:toast 6s linear infinite;}@keyframes tbar{0.00%{transform:scaleX(0.000)}31.67%{transform:scaleX(0.000)}46.67%{transform:scaleX(1.000)}100.00%{transform:scaleX(1.000)}}.tbar{animation:tbar 6s linear infinite;transform-box:fill-box;transform-origin:0 0}@keyframes landed{0.00%{opacity:0}48.33%{opacity:0}50.83%{opacity:1}93.33%{opacity:1}95.83%{opacity:0}100.00%{opacity:0}}.landed{animation:landed 6s linear infinite;}@media (prefers-reduced-motion:reduce){*{animation-play-state:paused!important}}</style><defs><linearGradient id="bg" x1="0" y1="0" x2="1" y2="1"><stop offset="0" stop-color="#141b3d"/><stop offset=".6" stop-color="#2d2466"/><stop offset="1" stop-color="#5a2f6e"/></linearGradient><linearGradient id="lin" x1="0" y1="0" x2="1" y2="1"><stop offset="0" stop-color="#2c0f2a"/><stop offset=".6" stop-color="#6b1d4b"/><stop offset="1" stop-color="#c2462f"/></linearGradient><linearGradient id="wall" x1="0" y1="0" x2="1" y2="1"><stop offset="0" stop-color="#2b4fc2"/><stop offset=".55" stop-color="#6a4fd0"/><stop offset="1" stop-color="#b45fc8"/></linearGradient><radialGradient id="glow1"><stop offset="0" stop-color="#ff9ad5" stop-opacity=".6"/><stop offset="1" stop-color="#ff9ad5" stop-opacity="0"/></radialGradient><radialGradient id="glow2"><stop offset="0" stop-color="#7cd3ff" stop-opacity=".55"/><stop offset="1" stop-color="#7cd3ff" stop-opacity="0"/></radialGradient><linearGradient id="alu" x1="0" y1="0" x2="0" y2="1"><stop offset="0" stop-color="#e6e8ec"/><stop offset="1" stop-color="#a4a8b1"/></linearGradient><filter id="sh" x="-20%" y="-20%" width="140%" height="150%"><feDropShadow dx="0" dy="1.2" stdDeviation="1.4" flood-color="#000" flood-opacity=".35"/></filter><clipPath id="scr"><rect x="108" y="16" width="174" height="109"/></clipPath><clipPath id="vc"><path d="M0 0H120V64.5a3 3 0 0 1-3 3H3a3 3 0 0 1-3-3z"/></clipPath></defs><rect width="300" height="146" rx="12" fill="url(#bg)"/><rect x="20" y="99" width="7" height="3" rx="1" fill="#2a2b33"/><rect x="41" y="99" width="7" height="3" rx="1" fill="#2a2b33"/><rect x="16" y="40" width="36" height="60" rx="4" fill="#1c1d24" stroke="#555966"/><rect x="21" y="45" width="26" height="11" rx="1.5" fill="#2a2b33"/><circle cx="34.0" cy="50.5" r="2" fill="#5ad16a"/><rect x="24" y="63" width="20" height="1.6" rx=".8" fill="#393b45"/><rect x="24" y="68" width="20" height="1.6" rx=".8" fill="#393b45"/><rect x="24" y="73" width="20" height="1.6" rx=".8" fill="#393b45"/><rect x="24" y="78" width="20" height="1.6" rx=".8" fill="#393b45"/><rect class="" x="22" y="89" width="24" height="3" rx="1.5" fill="#76b900"/><text text-anchor="middle" fill-opacity="0.8" x="34.0" y="116.0" font-family="-apple-system,BlinkMacSystemFont,'Segoe UI',Roboto,Helvetica,Arial,sans-serif" font-size="9.5" fill="#fff" xml:space="preserve">Linux</text><g class=""><line x1="56" y1="70" x2="119" y2="70" stroke="#fff" stroke-opacity=".5" stroke-width="1.4" stroke-dasharray="3 3"/><g transform="translate(87.5 55)"><rect x="-6.5" y="-4" width="13" height="10" rx="2.5" fill="#fff"/><path d="M-3.6-4v-2.2a3.6 3.6 0 0 1 7.2 0V-4" fill="none" stroke="#fff" stroke-width="1.6"/><circle cy=".6" r="1.4" fill="#3b2e87"/><rect x="-.6" y=".6" width="1.2" height="2.8" rx=".5" fill="#3b2e87"/></g></g><g transform="translate(28.6 7.0) scale(0.9)"><rect x="102.8" y="10.8" width="184.4" height="118.2" rx="8" fill="#b9bdc6"/><rect x="104" y="12" width="182" height="117" rx="7" fill="#0e0e11"/><g clip-path="url(#scr)"><rect x="108" y="16" width="174" height="109" fill="url(#wall)"/><ellipse cx="138" cy="115" rx="95" ry="45" fill="url(#glow1)"/><ellipse cx="257" cy="41" rx="80" ry="40" fill="url(#glow2)"/><g class=""><rect x="112" y="26" width="120" height="74.5" rx="3.5" fill="#111" filter="url(#sh)"/><path d="M112 33v-3.5a3.5 3.5 0 0 1 3.5-3.5h113a3.5 3.5 0 0 1 3.5 3.5v3.5z" fill="#e8e8ec"/><circle cx="117.5" cy="29.5" r="1.5" fill="#ff5f57"/><circle cx="122.0" cy="29.5" r="1.5" fill="#febc2e"/><circle cx="126.5" cy="29.5" r="1.5" fill="#28c840"/><g transform="translate(112 33)"><g clip-path="url(#vc)"><rect width="120" height="67.5" fill="url(#lin)"/><rect width="120" height="3.5" fill="#0b0b0d"/><g class="landed"><g opacity="1"><rect x="8" y="8.5" width="12" height="15" rx="1.5" fill="#fff" filter="url(#sh)"/><rect x="8" y="16.5" width="12" height="4.5" fill="#e5484d"/><text text-anchor="middle" font-weight="700" x="14.0" y="20.0" font-family="-apple-system,BlinkMacSystemFont,'Segoe UI',Roboto,Helvetica,Arial,sans-serif" font-size="3.6" fill="#fff" xml:space="preserve">PDF</text></g><text text-anchor="middle" font-weight="600" x="14.0" y="29.5" font-family="-apple-system,BlinkMacSystemFont,'Segoe UI',Roboto,Helvetica,Arial,sans-serif" font-size="5" fill="#fff" xml:space="preserve">report.pdf</text></g><g class="toast"><rect x="30" y="54" width="60" height="9" rx="4.5" fill="#000" fill-opacity=".55"/><rect x="35" y="57.5" width="50" height="2" rx="1" fill="#fff" fill-opacity=".25"/><rect class="tbar" x="35" y="57.5" width="50" height="2" rx="1" fill="#5aa0ff"/></g><rect class="drop" x="1" y="1" width="118" height="65.5" fill="none" stroke="#5aa0ff" stroke-width="2"/></g></g></g><g opacity="1"><rect x="251" y="50.5" width="12" height="15" rx="1.5" fill="#fff" filter="url(#sh)"/><rect x="251" y="58.5" width="12" height="4.5" fill="#e5484d"/><text text-anchor="middle" font-weight="700" x="257.0" y="62.0" font-family="-apple-system,BlinkMacSystemFont,'Segoe UI',Roboto,Helvetica,Arial,sans-serif" font-size="3.6" fill="#fff" xml:space="preserve">PDF</text></g><text text-anchor="middle" font-weight="600" x="257.0" y="74.0" font-family="-apple-system,BlinkMacSystemFont,'Segoe UI',Roboto,Helvetica,Arial,sans-serif" font-size="5.5" fill="#fff" xml:space="preserve">report.pdf</text><rect x="161.8" y="113.6" width="66.4" height="9.4" rx="3.2" fill="#fff" fill-opacity=".22" stroke="#fff" stroke-opacity=".35" stroke-width=".4"/><rect x="164.8" y="115.1" width="6.4" height="6.4" rx="1.6" fill="#2f8cff"/><rect x="173.8" y="115.1" width="6.4" height="6.4" rx="1.6" fill="#34c759"/><rect x="182.8" y="115.1" width="6.4" height="6.4" rx="1.6" fill="#ff9f0a"/><rect x="191.8" y="115.1" width="6.4" height="6.4" rx="1.6" fill="#bf5af2"/><rect x="200.8" y="115.1" width="6.4" height="6.4" rx="1.6" fill="#ff453a"/><rect x="209.8" y="115.1" width="6.4" height="6.4" rx="1.6" fill="#64d2ff"/><circle cx="222.0" cy="118.3" r="3" fill="#1d2a6b" stroke="#e8b04a" stroke-width=".9"/><circle cx="222.0" cy="122.2" r=".5" fill="#fff"/><rect x="108" y="16" width="174" height="6" fill="#fff" fill-opacity=".22"/><text font-weight="700" x="114.0" y="20.4" font-family="-apple-system,BlinkMacSystemFont,'Segoe UI',Roboto,Helvetica,Arial,sans-serif" font-size="3.9" fill="#fff" xml:space="preserve">Darpan</text><text x="133.0" y="20.4" font-family="-apple-system,BlinkMacSystemFont,'Segoe UI',Roboto,Helvetica,Arial,sans-serif" font-size="3.9" fill="#fff" xml:space="preserve">File</text><text x="142.5" y="20.4" font-family="-apple-system,BlinkMacSystemFont,'Segoe UI',Roboto,Helvetica,Arial,sans-serif" font-size="3.9" fill="#fff" xml:space="preserve">Edit</text><text x="152.0" y="20.4" font-family="-apple-system,BlinkMacSystemFont,'Segoe UI',Roboto,Helvetica,Arial,sans-serif" font-size="3.9" fill="#fff" xml:space="preserve">View</text><text x="164.0" y="20.4" font-family="-apple-system,BlinkMacSystemFont,'Segoe UI',Roboto,Helvetica,Arial,sans-serif" font-size="3.9" fill="#fff" xml:space="preserve">Window</text><g fill="none" stroke="#fff" stroke-width=".6" stroke-linecap="round" transform="translate(248 20.3)"><path d="M-2.4-1.6a3.4 3.4 0 0 1 4.8 0"/><path d="M-1.3-.5a1.8 1.8 0 0 1 2.6 0"/></g><circle cx="248" cy="20.4" r=".45" fill="#fff"/><rect x="255" y="17.9" width="7" height="3.3" rx=".9" fill="none" stroke="#fff" stroke-width=".5"/><rect x="255.8" y="18.7" width="4.6" height="1.7" rx=".4" fill="#fff"/><text text-anchor="end" font-weight="600" x="277.0" y="20.4" font-family="-apple-system,BlinkMacSystemFont,'Segoe UI',Roboto,Helvetica,Arial,sans-serif" font-size="3.9" fill="#fff" xml:space="preserve">9:41</text><path d="M184.0 16h22v3a2 2 0 0 1-2 2h-18a2 2 0 0 1-2-2z" fill="#0e0e11"/></g><path d="M97 129h196l-3.5 6h-189z" fill="url(#alu)"/><rect x="183.0" y="129" width="24" height="2" rx="1" fill="#9a9ea8"/><g class="drag"><g opacity="0.8"><rect x="-6" y="-7.5" width="12" height="15" rx="1.5" fill="#fff" filter="url(#sh)"/><rect x="-6" y="0.5" width="12" height="4.5" fill="#e5484d"/><text text-anchor="middle" font-weight="700" x="0.0" y="4.0" font-family="-apple-system,BlinkMacSystemFont,'Segoe UI',Roboto,Helvetica,Arial,sans-serif" font-size="3.6" fill="#fff" xml:space="preserve">PDF</text></g></g><path class="ptr" d="M0 0v10.5l2.5-2.3 1.7 4 1.8-.8-1.7-3.9h3.4z" fill="#000" stroke="#fff" stroke-width=".8"/></g><g class="d1"><g opacity="1"><rect x="-5" y="-6.5" width="10" height="13" rx="1.5" fill="#fff" filter="url(#sh)"/><path d="M-2.8-2.5h5.6M-2.8 .5h5.6M-2.8 3.5h3.6" stroke="#3b2e87" stroke-width="1"/></g></g></svg>