<svg xmlns="http://www.w3.org/2000/svg" viewBox="0 0 300 146" width="300" height="146" role="img" aria-label="A file dragged from the Mac desktop onto Darpan's window lands in the Downloads/Darpan folder on the Linux computer"><title>A file dragged from the Mac desktop onto Darpan's window lands in the Downloads/Darpan folder on the Linux computer</title><style>@keyframes ptr{0.00%{opacity:0;transform:translate(262.0px,60.0px)}5.00%{opacity:0;transform:translate(262.0px,60.0px)}6.67%{opacity:1;transform:translate(262.0px,60.0px)}11.67%{opacity:1;transform:translate(262.0px,60.0px)}26.67%{opacity:1;transform:translate(176.0px,64.0px)}35.00%{opacity:1;transform:translate(176.0px,64.0px)}36.67%{opacity:0;transform:translate(176.0px,64.0px)}100.00%{opacity:0;transform:translate(176.0px,64.0px)}}.ptr{animation:ptr 6s ease-in-out infinite;}@keyframes drag{0.00%{opacity:0;transform:translate(257.0px,58.0px)}11.67%{opacity:0;transform:translate(257.0px,58.0px)}13.33%{opacity:1;transform:translate(257.0px,58.0px)}26.67%{opacity:1;transform:translate(171.0px,62.0px)}30.83%{opacity:1;transform:translate(171.0px,62.0px)}32.50%{opacity:0;transform:translate(171.0px,62.0px)}100.00%{opacity:0;transform:translate(171.0px,62.0px)}}.drag{animation:drag 6s ease-in-out infinite;}@keyframes drop{0.00%{opacity:0}22.50%{opacity:0}24.17%{opacity:1}31.67%{opacity:1}33.33%{opacity:0}100.00%{opacity:0}}.drop{animation:drop 6s linear infinite;}@keyframes d1{0.00%{opacity:0;transform:translate(101.0px,70.0px)}31.67%{opacity:0;transform:translate(101.0px,70.0px)}33.33%{opacity:1;transform:translate(101.0px,70.0px)}43.33%{opacity:1;transform:translate(56.0px,70.0px)}45.00%{opacity:0;transform:translate(56.0px,70.0px)}100.00%{opacity:0;transform:translate(56.0px,70.0px)}}.d1{animation:d1 6s ease-in-out infinite;}@keyframes toast{0.00%{opacity:0}31.67%{opacity:0}33.33%{opacity:1}48.33%{opacity:1}50.00%{opacity:0}100.00%{opacity:0}}.toast{animation:toast 6s linear infinite;}@keyframes tbar{0.00%{transform:scaleX(0.000)}31.67%{transform:scaleX(0.000)}46.67%{transform:scaleX(1.000)}100.00%{transform:scaleX(1.000)}}.tbar{animation:tbar 6s linear infinite;transform-box:fill-box;transform-origin:0 0}@keyframes landed{0.00%{opacity:0}48.33%{opacity:0}50.83%{opacity:1}93.33%{opacity:1}95.83%{opacity:0}100.00%{opacity:0}}.landed{animation:landed 6s linear infinite;}@media (prefers-reduced-motion:reduce){*{animation-play-state:paused!important}}</style><defs><linearGradient id="bg" x1="0" y1="0" x2="1" y2="1"><stop offset="0" stop-color="#141b3d"/><stop offset=".6" stop-color="#2d2466"/><stop offset="1" stop-color="#5a2f6e"/></linearGradient><linearGradient id="lin" x1="0" y1="0" x2="1" y2="1"><stop offset="0" stop-color="#2c0f2a"/><stop offset=".6" stop-color="#6b1d4b"/><stop offset="1" stop-color="#c2462f"/></linearGradient><linearGradient id="wall" x1="0" y1="0" x2="1" y2="1"><stop offset="0" stop-color="#3d6fd6"/><stop offset="1" stop-color="#a26fd8"/></linearGradient><filter id="sh" x="-20%" y="-20%" width="140%" height="150%"><feDropShadow dx="0" dy="1.2" stdDeviation="1.4" flood-color="#000" flood-opacity=".35"/></filter><clipPath id="scr"><rect x="108" y="16" width="174" height="109"/></clipPath><clipPath id="vc"><path d="M0 0H120V64.5a3 3 0 0 1-3 3H3a3 3 0 0 1-3-3z"/></clipPath></defs><rect width="300" height="146" rx="12" fill="url(#bg)"/><rect x="20" y="99" width="7" height="3" rx="1" fill="#2a2b33"/><rect x="41" y="99" width="7" height="3" rx="1" fill="#2a2b33"/><rect x="16" y="40" width="36" height="60" rx="4" fill="#1c1d24" stroke="#555966"/><rect x="21" y="45" width="26" height="11" rx="1.5" fill="#2a2b33"/><circle cx="34.0" cy="50.5" r="2" fill="#5ad16a"/><rect x="24" y="63" width="20" height="1.6" rx=".8" fill="#393b45"/><rect x="24" y="68" width="20" height="1.6" rx=".8" fill="#393b45"/><rect x="24" y="73" width="20" height="1.6" rx=".8" fill="#393b45"/><rect x="24" y="78" width="20" height="1.6" rx=".8" fill="#393b45"/><rect class="" x="22" y="89" width="24" height="3" rx="1.5" fill="#76b900"/><text text-anchor="middle" fill-opacity="0.8" x="34.0" y="116.0" font-family="-apple-system,BlinkMacSystemFont,'Segoe UI',Roboto,Helvetica,Arial,sans-serif" font-size="9.5" fill="#fff" xml:space="preserve">Linux</text><g class=""><line x1="56" y1="70" x2="101" y2="70" stroke="#fff" stroke-opacity=".5" stroke-width="1.4" stroke-dasharray="3 3"/><g transform="translate(78.5 55)"><rect x="-6.5" y="-4" width="13" height="10" rx="2.5" fill="#fff"/><path d="M-3.6-4v-2.2a3.6 3.6 0 0 1 7.2 0V-4" fill="none" stroke="#fff" stroke-width="1.6"/><circle cy=".6" r="1.4" fill="#3b2e87"/><rect x="-.6" y=".6" width="1.2" height="2.8" rx=".5" fill="#3b2e87"/></g></g><rect x="104" y="12" width="182" height="117" rx="7" fill="#0e0e11"/><g clip-path="url(#scr)"><rect x="108" y="16" width="174" height="109" fill="url(#wall)"/><rect x="108" y="16" width="174" height="5" fill="#fff" fill-opacity=".3"/><rect x="113" y="17.6" width="3" height="1.8" rx=".9" fill="#1d1d1f" fill-opacity=".5"/><rect x="119" y="17.6" width="8" height="1.8" rx=".9" fill="#1d1d1f" fill-opacity=".5"/><rect x="130" y="17.6" width="6" height="1.8" rx=".9" fill="#1d1d1f" fill-opacity=".5"/><rect x="139" y="17.6" width="7" height="1.8" rx=".9" fill="#1d1d1f" fill-opacity=".5"/><rect x="262" y="17.6" width="5" height="1.8" rx=".9" fill="#1d1d1f" fill-opacity=".5"/><rect x="271" y="17.6" width="7" height="1.8" rx=".9" fill="#1d1d1f" fill-opacity=".5"/><g class=""><rect x="112" y="26" width="120" height="74.5" rx="3.5" fill="#111" filter="url(#sh)"/><path d="M112 33v-3.5a3.5 3.5 0 0 1 3.5-3.5h113a3.5 3.5 0 0 1 3.5 3.5v3.5z" fill="#e8e8ec"/><circle cx="117.5" cy="29.5" r="1.5" fill="#ff5f57"/><circle cx="122.0" cy="29.5" r="1.5" fill="#febc2e"/><circle cx="126.5" cy="29.5" r="1.5" fill="#28c840"/><g transform="translate(112 33)"><g clip-path="url(#vc)"><rect width="120" height="67.5" fill="url(#lin)"/><rect width="120" height="3.5" fill="#0b0b0d"/><rect x="6" y="7" width="108" height="54" rx="2.5" fill="#242424"/><path d="M6 12v-2.5a2.5 2.5 0 0 1 2.5-2.5h103a2.5 2.5 0 0 1 2.5 2.5v2.5z" fill="#303030"/><text fill-opacity="0.8" x="12.0" y="10.6" font-family="-apple-system,BlinkMacSystemFont,'Segoe UI',Roboto,Helvetica,Arial,sans-serif" font-size="5" fill="#fff" xml:space="preserve">Downloads/Darpan</text><g class="landed"><g opacity="1"><rect x="16" y="21.5" width="12" height="15" rx="1.5" fill="#fff" filter="url(#sh)"/><rect x="16" y="29.5" width="12" height="4.5" fill="#e5484d"/><text text-anchor="middle" font-weight="700" x="22.0" y="33.0" font-family="-apple-system,BlinkMacSystemFont,'Segoe UI',Roboto,Helvetica,Arial,sans-serif" font-size="3.6" fill="#fff" xml:space="preserve">PDF</text></g><text text-anchor="middle" fill-opacity="0.9" x="22.0" y="44.0" font-family="-apple-system,BlinkMacSystemFont,'Segoe UI',Roboto,Helvetica,Arial,sans-serif" font-size="5" fill="#fff" xml:space="preserve">report.pdf</text></g><g class="toast"><rect x="30" y="47" width="60" height="9" rx="4.5" fill="#000" fill-opacity=".55"/><rect x="35" y="50.5" width="50" height="2" rx="1" fill="#fff" fill-opacity=".25"/><rect class="tbar" x="35" y="50.5" width="50" height="2" rx="1" fill="#5aa0ff"/></g><rect class="drop" x="1" y="1" width="118" height="65.5" fill="none" stroke="#5aa0ff" stroke-width="2"/></g></g></g><g opacity="1"><rect x="251" y="50.5" width="12" height="15" rx="1.5" fill="#fff" filter="url(#sh)"/><rect x="251" y="58.5" width="12" height="4.5" fill="#e5484d"/><text text-anchor="middle" font-weight="700" x="257.0" y="62.0" font-family="-apple-system,BlinkMacSystemFont,'Segoe UI',Roboto,Helvetica,Arial,sans-serif" font-size="3.6" fill="#fff" xml:space="preserve">PDF</text></g><text text-anchor="middle" font-weight="600" x="257.0" y="74.0" font-family="-apple-system,BlinkMacSystemFont,'Segoe UI',Roboto,Helvetica,Arial,sans-serif" font-size="5.5" fill="#fff" xml:space="preserve">report.pdf</text></g><path d="M97 129h196l-3.5 6h-189z" fill="#c9ccd3"/><rect x="183.0" y="129" width="24" height="2" rx="1" fill="#a3a7b0"/><g class="drag"><g opacity="0.8"><rect x="-6" y="-7.5" width="12" height="15" rx="1.5" fill="#fff" filter="url(#sh)"/><rect x="-6" y="0.5" width="12" height="4.5" fill="#e5484d"/><text text-anchor="middle" font-weight="700" x="0.0" y="4.0" font-family="-apple-system,BlinkMacSystemFont,'Segoe UI',Roboto,Helvetica,Arial,sans-serif" font-size="3.6" fill="#fff" xml:space="preserve">PDF</text></g></g><path class="ptr" d="M0 0v10.5l2.5-2.3 1.7 4 1.8-.8-1.7-3.9h3.4z" fill="#000" stroke="#fff" stroke-width=".8"/><g class="d1"><g opacity="1"><rect x="-5" y="-6.5" width="10" height="13" rx="1.5" fill="#fff" filter="url(#sh)"/><path d="M-2.8-2.5h5.6M-2.8 .5h5.6M-2.8 3.5h3.6" stroke="#3b2e87" stroke-width="1"/></g></g></svg>