<svg xmlns="http://www.w3.org/2000/svg" viewBox="0 0 300 146" width="300" height="146" role="img" aria-label="Only your own devices reach the Linux computer, over an encrypted link; another device is refused"><title>Only your own devices reach the Linux computer, over an encrypted link; another device is refused</title><style>@keyframes bar{0.00%{transform:scaleX(0.350)}100.00%{transform:scaleX(0.750)}}.bar{animation:bar 6s linear infinite;transform-box:fill-box;transform-origin:0 0}@keyframes pk0{0.00%{opacity:0;transform:translate(119.0px,70.0px)}3.33%{opacity:0;transform:translate(119.0px,70.0px)}4.17%{opacity:1;transform:translate(119.0px,70.0px)}10.00%{opacity:1;transform:translate(56.0px,70.0px)}10.83%{opacity:0;transform:translate(56.0px,70.0px)}100.00%{opacity:0;transform:translate(56.0px,70.0px)}}.pk0{animation:pk0 6s ease-in-out infinite;}@keyframes pk1{0.00%{opacity:0;transform:translate(119.0px,70.0px)}20.00%{opacity:0;transform:translate(119.0px,70.0px)}20.83%{opacity:1;transform:translate(119.0px,70.0px)}26.67%{opacity:1;transform:translate(56.0px,70.0px)}27.50%{opacity:0;transform:translate(56.0px,70.0px)}100.00%{opacity:0;transform:translate(56.0px,70.0px)}}.pk1{animation:pk1 6s ease-in-out infinite;}@keyframes pk2{0.00%{opacity:0;transform:translate(119.0px,70.0px)}36.67%{opacity:0;transform:translate(119.0px,70.0px)}37.50%{opacity:1;transform:translate(119.0px,70.0px)}43.33%{opacity:1;transform:translate(56.0px,70.0px)}44.17%{opacity:0;transform:translate(56.0px,70.0px)}100.00%{opacity:0;transform:translate(56.0px,70.0px)}}.pk2{animation:pk2 6s ease-in-out infinite;}@keyframes pk3{0.00%{opacity:0;transform:translate(119.0px,70.0px)}53.33%{opacity:0;transform:translate(119.0px,70.0px)}54.17%{opacity:1;transform:translate(119.0px,70.0px)}60.00%{opacity:1;transform:translate(56.0px,70.0px)}60.83%{opacity:0;transform:translate(56.0px,70.0px)}100.00%{opacity:0;transform:translate(56.0px,70.0px)}}.pk3{animation:pk3 6s ease-in-out infinite;}@keyframes pk4{0.00%{opacity:0;transform:translate(119.0px,70.0px)}70.00%{opacity:0;transform:translate(119.0px,70.0px)}70.83%{opacity:1;transform:translate(119.0px,70.0px)}76.67%{opacity:1;transform:translate(56.0px,70.0px)}77.50%{opacity:0;transform:translate(56.0px,70.0px)}100.00%{opacity:0;transform:translate(56.0px,70.0px)}}.pk4{animation:pk4 6s ease-in-out infinite;}@keyframes pk5{0.00%{opacity:0;transform:translate(56.0px,70.0px)}11.67%{opacity:0;transform:translate(56.0px,70.0px)}12.50%{opacity:1;transform:translate(56.0px,70.0px)}18.33%{opacity:1;transform:translate(119.0px,70.0px)}19.17%{opacity:0;transform:translate(119.0px,70.0px)}100.00%{opacity:0;transform:translate(119.0px,70.0px)}}.pk5{animation:pk5 6s ease-in-out infinite;}@keyframes pk6{0.00%{opacity:0;transform:translate(56.0px,70.0px)}28.33%{opacity:0;transform:translate(56.0px,70.0px)}29.17%{opacity:1;transform:translate(56.0px,70.0px)}35.00%{opacity:1;transform:translate(119.0px,70.0px)}35.83%{opacity:0;transform:translate(119.0px,70.0px)}100.00%{opacity:0;transform:translate(119.0px,70.0px)}}.pk6{animation:pk6 6s ease-in-out infinite;}@keyframes pk7{0.00%{opacity:0;transform:translate(56.0px,70.0px)}45.00%{opacity:0;transform:translate(56.0px,70.0px)}45.83%{opacity:1;transform:translate(56.0px,70.0px)}51.67%{opacity:1;transform:translate(119.0px,70.0px)}52.50%{opacity:0;transform:translate(119.0px,70.0px)}100.00%{opacity:0;transform:translate(119.0px,70.0px)}}.pk7{animation:pk7 6s ease-in-out infinite;}@keyframes pk8{0.00%{opacity:0;transform:translate(56.0px,70.0px)}61.67%{opacity:0;transform:translate(56.0px,70.0px)}62.50%{opacity:1;transform:translate(56.0px,70.0px)}68.33%{opacity:1;transform:translate(119.0px,70.0px)}69.17%{opacity:0;transform:translate(119.0px,70.0px)}100.00%{opacity:0;transform:translate(119.0px,70.0px)}}.pk8{animation:pk8 6s ease-in-out infinite;}@keyframes pk9{0.00%{opacity:0;transform:translate(56.0px,70.0px)}78.33%{opacity:0;transform:translate(56.0px,70.0px)}79.17%{opacity:1;transform:translate(56.0px,70.0px)}85.00%{opacity:1;transform:translate(119.0px,70.0px)}85.83%{opacity:0;transform:translate(119.0px,70.0px)}100.00%{opacity:0;transform:translate(119.0px,70.0px)}}.pk9{animation:pk9 6s ease-in-out infinite;}@keyframes who{0.00%{opacity:0}13.33%{opacity:0}17.50%{opacity:1}73.33%{opacity:1}77.50%{opacity:0}100.00%{opacity:0}}.who{animation:who 6s linear infinite;}@keyframes probe{0.00%{opacity:0;transform:translate(71.0px,34.0px)}28.33%{opacity:0;transform:translate(71.0px,34.0px)}29.67%{opacity:1;transform:translate(71.0px,34.0px)}38.67%{opacity:1;transform:translate(60.0px,42.0px)}40.00%{opacity:0;transform:translate(60.0px,42.0px)}100.00%{opacity:0;transform:translate(60.0px,42.0px)}}.probe{animation:probe 6s ease-in-out infinite;}@keyframes deny{0.00%{opacity:0}39.17%{opacity:0}40.83%{opacity:1}63.33%{opacity:1}65.00%{opacity:0}100.00%{opacity:0}}.deny{animation:deny 6s linear infinite;}@media (prefers-reduced-motion:reduce){*{animation-play-state:paused!important}}</style><defs><linearGradient id="bg" x1="0" y1="0" x2="1" y2="1"><stop offset="0" stop-color="#141b3d"/><stop offset=".6" stop-color="#2d2466"/><stop offset="1" stop-color="#5a2f6e"/></linearGradient><linearGradient id="lin" x1="0" y1="0" x2="1" y2="1"><stop offset="0" stop-color="#2c0f2a"/><stop offset=".6" stop-color="#6b1d4b"/><stop offset="1" stop-color="#c2462f"/></linearGradient><linearGradient id="wall" x1="0" y1="0" x2="1" y2="1"><stop offset="0" stop-color="#2b4fc2"/><stop offset=".55" stop-color="#6a4fd0"/><stop offset="1" stop-color="#b45fc8"/></linearGradient><radialGradient id="glow1"><stop offset="0" stop-color="#ff9ad5" stop-opacity=".6"/><stop offset="1" stop-color="#ff9ad5" stop-opacity="0"/></radialGradient><radialGradient id="glow2"><stop offset="0" stop-color="#7cd3ff" stop-opacity=".55"/><stop offset="1" stop-color="#7cd3ff" stop-opacity="0"/></radialGradient><linearGradient id="alu" x1="0" y1="0" x2="0" y2="1"><stop offset="0" stop-color="#e6e8ec"/><stop offset="1" stop-color="#a4a8b1"/></linearGradient><filter id="sh" x="-20%" y="-20%" width="140%" height="150%"><feDropShadow dx="0" dy="1.2" stdDeviation="1.4" flood-color="#000" flood-opacity=".35"/></filter><clipPath id="scr"><rect x="108" y="16" width="174" height="109"/></clipPath><clipPath id="vc"><path d="M0 0H140V75.75a3 3 0 0 1-3 3H3a3 3 0 0 1-3-3z"/></clipPath></defs><rect width="300" height="146" rx="12" fill="url(#bg)"/><rect x="20" y="99" width="7" height="3" rx="1" fill="#2a2b33"/><rect x="41" y="99" width="7" height="3" rx="1" fill="#2a2b33"/><rect x="16" y="40" width="36" height="60" rx="4" fill="#1c1d24" stroke="#555966"/><rect x="21" y="45" width="26" height="11" rx="1.5" fill="#2a2b33"/><circle cx="34.0" cy="50.5" r="2" fill="#5ad16a"/><rect x="24" y="63" width="20" height="1.6" rx=".8" fill="#393b45"/><rect x="24" y="68" width="20" height="1.6" rx=".8" fill="#393b45"/><rect x="24" y="73" width="20" height="1.6" rx=".8" fill="#393b45"/><rect x="24" y="78" width="20" height="1.6" rx=".8" fill="#393b45"/><rect class="" x="22" y="89" width="24" height="3" rx="1.5" fill="#76b900"/><text text-anchor="middle" fill-opacity="0.8" x="34.0" y="116.0" font-family="-apple-system,BlinkMacSystemFont,'Segoe UI',Roboto,Helvetica,Arial,sans-serif" font-size="9.5" fill="#fff" xml:space="preserve">Linux</text><line x1="56" y1="70" x2="119" y2="70" stroke="#7ee787" stroke-opacity=".8" stroke-width="3" stroke-linecap="round"/><g class=""><line x1="56" y1="70" x2="119" y2="70" stroke="#fff" stroke-opacity=".5" stroke-width="1.4" stroke-dasharray="3 3"/><g transform="translate(87.5 55)"><rect x="-6.5" y="-4" width="13" height="10" rx="2.5" fill="#fff"/><path d="M-3.6-4v-2.2a3.6 3.6 0 0 1 7.2 0V-4" fill="none" stroke="#fff" stroke-width="1.6"/><circle cy=".6" r="1.4" fill="#3b2e87"/><rect x="-.6" y=".6" width="1.2" height="2.8" rx=".5" fill="#3b2e87"/></g></g><g transform="translate(28.6 7.0) scale(0.9)"><rect x="102.8" y="10.8" width="184.4" height="118.2" rx="8" fill="#b9bdc6"/><rect x="104" y="12" width="182" height="117" rx="7" fill="#0e0e11"/><g clip-path="url(#scr)"><rect x="108" y="16" width="174" height="109" fill="url(#wall)"/><ellipse cx="138" cy="115" rx="95" ry="45" fill="url(#glow1)"/><ellipse cx="257" cy="41" rx="80" ry="40" fill="url(#glow2)"/><g class=""><rect x="125" y="26" width="140" height="85.75" rx="3.5" fill="#111" filter="url(#sh)"/><path d="M125 33v-3.5a3.5 3.5 0 0 1 3.5-3.5h133a3.5 3.5 0 0 1 3.5 3.5v3.5z" fill="#e8e8ec"/><circle cx="130.5" cy="29.5" r="1.5" fill="#ff5f57"/><circle cx="135.0" cy="29.5" r="1.5" fill="#febc2e"/><circle cx="139.5" cy="29.5" r="1.5" fill="#28c840"/><g transform="translate(125 33)"><g clip-path="url(#vc)"><rect width="140" height="78.75" fill="url(#lin)"/><rect width="140" height="3.5" fill="#0b0b0d"/><rect x="8" y="8" width="124" height="44" rx="2.5" fill="#1e1a23"/><path d="M8 13v-2.5a2.5 2.5 0 0 1 2.5-2.5h119a2.5 2.5 0 0 1 2.5 2.5v2.5z" fill="#3a3640"/><text x="13.0" y="23.0" font-family="ui-monospace,'SF Mono',Menlo,Consolas,'DejaVu Sans Mono',monospace" font-size="8" fill="#8ae234" xml:space="preserve">$</text><text x="22.6" y="23.0" font-family="ui-monospace,'SF Mono',Menlo,Consolas,'DejaVu Sans Mono',monospace" font-size="8" fill="#e6e6e6" xml:space="preserve">python train.py</text><text x="13.0" y="34.0" font-family="ui-monospace,'SF Mono',Menlo,Consolas,'DejaVu Sans Mono',monospace" font-size="8" fill="#7fd1ff" xml:space="preserve">epoch 2/3</text><rect x="13" y="39" width="114" height="4" rx="2" fill="#fff" fill-opacity=".15"/><rect class="bar" x="13" y="39" width="114" height="4" rx="2" fill="#8ae234"/></g></g></g><rect x="161.8" y="113.6" width="66.4" height="9.4" rx="3.2" fill="#fff" fill-opacity=".22" stroke="#fff" stroke-opacity=".35" stroke-width=".4"/><rect x="164.8" y="115.1" width="6.4" height="6.4" rx="1.6" fill="#2f8cff"/><rect x="173.8" y="115.1" width="6.4" height="6.4" rx="1.6" fill="#34c759"/><rect x="182.8" y="115.1" width="6.4" height="6.4" rx="1.6" fill="#ff9f0a"/><rect x="191.8" y="115.1" width="6.4" height="6.4" rx="1.6" fill="#bf5af2"/><rect x="200.8" y="115.1" width="6.4" height="6.4" rx="1.6" fill="#ff453a"/><rect x="209.8" y="115.1" width="6.4" height="6.4" rx="1.6" fill="#64d2ff"/><circle cx="222.0" cy="118.3" r="3" fill="#1d2a6b" stroke="#e8b04a" stroke-width=".9"/><circle cx="222.0" cy="122.2" r=".5" fill="#fff"/><rect x="108" y="16" width="174" height="6" fill="#fff" fill-opacity=".22"/><path transform="translate(110.6 17.2) scale(0.15)" d="M12.152 6.896c-.948 0-2.415-1.078-3.96-1.04-2.04.027-3.91 1.183-4.961 3.014-2.117 3.675-.546 9.103 1.519 12.09 1.013 1.454 2.208 3.09 3.792 3.039 1.52-.065 2.09-.987 3.935-.987 1.831 0 2.35.987 3.96.948 1.637-.026 2.676-1.48 3.676-2.948 1.156-1.688 1.636-3.325 1.662-3.415-.039-.013-3.182-1.221-3.22-4.857-.026-3.04 2.48-4.494 2.597-4.559-1.429-2.09-3.623-2.324-4.39-2.376-2-.156-3.675 1.09-4.61 1.09zM15.53 3.83c.843-1.012 1.4-2.427 1.245-3.83-1.207.052-2.662.805-3.532 1.818-.78.896-1.454 2.338-1.273 3.714 1.338.104 2.715-.688 3.559-1.701" fill="#fff"/><text font-weight="700" x="117.0" y="20.4" font-family="-apple-system,BlinkMacSystemFont,'Segoe UI',Roboto,Helvetica,Arial,sans-serif" font-size="3.9" fill="#fff" xml:space="preserve">Darpan</text><text x="136.0" y="20.4" font-family="-apple-system,BlinkMacSystemFont,'Segoe UI',Roboto,Helvetica,Arial,sans-serif" font-size="3.9" fill="#fff" xml:space="preserve">File</text><text x="145.5" y="20.4" font-family="-apple-system,BlinkMacSystemFont,'Segoe UI',Roboto,Helvetica,Arial,sans-serif" font-size="3.9" fill="#fff" xml:space="preserve">Edit</text><text x="155.0" y="20.4" font-family="-apple-system,BlinkMacSystemFont,'Segoe UI',Roboto,Helvetica,Arial,sans-serif" font-size="3.9" fill="#fff" xml:space="preserve">View</text><text x="167.0" y="20.4" font-family="-apple-system,BlinkMacSystemFont,'Segoe UI',Roboto,Helvetica,Arial,sans-serif" font-size="3.9" fill="#fff" xml:space="preserve">Window</text><g fill="none" stroke="#fff" stroke-width=".6" stroke-linecap="round" transform="translate(248 20.3)"><path d="M-2.4-1.6a3.4 3.4 0 0 1 4.8 0"/><path d="M-1.3-.5a1.8 1.8 0 0 1 2.6 0"/></g><circle cx="248" cy="20.4" r=".45" fill="#fff"/><rect x="255" y="17.9" width="7" height="3.3" rx=".9" fill="none" stroke="#fff" stroke-width=".5"/><rect x="255.8" y="18.7" width="4.6" height="1.7" rx=".4" fill="#fff"/><text text-anchor="end" font-weight="600" x="277.0" y="20.4" font-family="-apple-system,BlinkMacSystemFont,'Segoe UI',Roboto,Helvetica,Arial,sans-serif" font-size="3.9" fill="#fff" xml:space="preserve">9:41</text><path d="M184.0 16h22v3a2 2 0 0 1-2 2h-18a2 2 0 0 1-2-2z" fill="#0e0e11"/></g><path d="M97 129h196l-3.5 6h-189z" fill="url(#alu)"/><rect x="183.0" y="129" width="24" height="2" rx="1" fill="#9a9ea8"/></g><circle class="pk0" r="2" fill="#fff"/><circle class="pk1" r="2" fill="#fff"/><circle class="pk2" r="2" fill="#fff"/><circle class="pk3" r="2" fill="#fff"/><circle class="pk4" r="2" fill="#fff"/><circle class="pk5" r="2" fill="#fff"/><circle class="pk6" r="2" fill="#fff"/><circle class="pk7" r="2" fill="#fff"/><circle class="pk8" r="2" fill="#fff"/><circle class="pk9" r="2" fill="#fff"/><g class="who"><rect x="66" y="14" width="24" height="15" rx="2" fill="#5f636e"/><rect x="68" y="16" width="20" height="11" fill="#2b2d34"/><text text-anchor="middle" font-weight="700" x="78.0" y="25.0" font-family="-apple-system,BlinkMacSystemFont,'Segoe UI',Roboto,Helvetica,Arial,sans-serif" font-size="9" fill="#ff6b6b" xml:space="preserve">?</text><path d="M62 29h32l-2.5 3.5h-27z" fill="#8b8f99"/></g><circle class="probe" r="2.2" fill="#ff5f57"/><g class="deny"><g transform="translate(57 44)"><path d="M0-7l6 2.3V0c0 4-2.6 6.2-6 7.2C-3.4 6.2-6 4-6 0v-4.7z" fill="#ff5f57" stroke="#fff" stroke-width="1"/><path d="M-2.2-2.2l4.4 4.4M2.2-2.2l-4.4 4.4" stroke="#fff" stroke-width="1.4" stroke-linecap="round"/></g></g></svg>